<?xml version="1.0" standalone="no"?>
<!DOCTYPE svg PUBLIC "-//W3C//DTD SVG 20010904//EN"
 "http://www.w3.org/TR/2001/REC-SVG-20010904/DTD/svg10.dtd">
<svg version="1.0" xmlns="http://www.w3.org/2000/svg"
 width="612.000000pt" height="612.000000pt" viewBox="0 0 612.000000 612.000000"
 preserveAspectRatio="xMidYMid meet">
<metadata>
Created by potrace 1.14, written by Peter Selinger 2001-2017
</metadata>
<g transform="translate(0.000000,612.000000) scale(0.100000,-0.100000)"
fill="#000000" stroke="none">
<path d="M4388 4555 c-2 -2 -24 -6 -49 -9 -52 -7 -135 -34 -194 -63 -161 -79
-278 -185 -472 -433 -67 -85 -181 -229 -253 -320 -72 -91 -150 -190 -174 -221
-24 -30 -50 -64 -59 -75 -33 -40 -198 -250 -212 -269 -14 -20 -15 -19 -37 10
-13 16 -56 81 -97 145 -41 63 -78 117 -81 120 -4 3 -12 15 -19 27 -6 13 -76
121 -155 240 -78 120 -200 305 -269 411 l-127 192 -545 0 -545 0 1 -43 2 -42
111 0 c61 1 117 -1 123 -3 10 -3 13 -270 13 -1288 l0 -1284 -124 0 -124 0 2
-43 1 -42 305 -1 c168 0 310 1 316 3 6 2 9 14 8 26 -1 12 -3 30 -3 40 -1 15
-14 17 -121 17 l-120 0 0 1286 0 1286 72 -109 c39 -59 99 -151 133 -203 34
-52 118 -180 187 -285 68 -104 164 -251 213 -325 86 -132 135 -207 400 -609
l128 -195 21 25 c32 39 318 399 347 439 23 29 374 474 412 520 7 8 95 121 197
250 102 129 190 242 197 250 190 240 322 353 479 406 69 23 90 27 174 26 163
0 292 -82 370 -235 60 -117 73 -284 31 -387 -5 -14 -10 -20 -10 -13 -2 23 -59
79 -108 103 -64 32 -159 33 -220 2 -152 -78 -184 -278 -65 -401 43 -45 91 -64
163 -67 88 -4 152 26 233 109 186 189 224 470 98 727 -69 141 -213 254 -367
289 -47 11 -180 22 -187 16z"/>
<path d="M3990 3462 c-63 -81 -191 -244 -285 -362 l-170 -214 0 -616 0 -615
-123 -3 -122 -3 0 -42 0 -42 537 0 537 0 2 43 2 44 -119 -4 c-115 -4 -120 -4
-124 16 -2 12 -3 312 -3 668 l1 646 106 0 c58 0 113 0 121 1 10 1 16 14 18 41
2 32 -1 40 -15 41 -10 0 -65 1 -123 2 l-105 2 0 273 c0 175 -4 272 -10 271 -5
0 -62 -66 -125 -147z"/>
</g>
</svg>
